# xmcd CD database file
#
# Track frame offsets:
#	150
#	9262
#	33204
#	48243
#	90373
#	126388
#	134942
#	157292
#	193925
#	215761
#	270866
#
# Disc length: 4371 seconds
#
# Revision: 0
# Processed by: cddbd v1.5.1PL0 Copyright (c) Steve Scherf et al.
# Submitted via: CDex 1.51
#
DISCID=9c11110b
DTITLE=Adam Pacione - Sisyphus
DYEAR=2005
DGENRE=New Age
TTITLE0=testament
TTITLE1=joelma's burning
TTITLE2=an evening's pursuit
TTITLE3=groves, springs and hilltops
TTITLE4=trust my navigation
TTITLE5=grey gardens
TTITLE6=with wakened eyes
TTITLE7=weeping cypress
TTITLE8=the last five minutes of sleep
TTITLE9=cicada lullaby
TTITLE10=susyphus
EXTD=YEAR: 2005
EXTT0=
EXTT1=
EXTT2=
EXTT3=
EXTT4=
EXTT5=
EXTT6=
EXTT7=
EXTT8=
EXTT9=
EXTT10=
PLAYORDER=
